<?xml version="1.0" standalone="no"?>
<!DOCTYPE svg PUBLIC "-//W3C//DTD SVG 20010904//EN"
 "http://www.w3.org/TR/2001/REC-SVG-20010904/DTD/svg10.dtd">
<svg version="1.0" xmlns="http://www.w3.org/2000/svg"
 width="757.000000pt" height="757.000000pt" viewBox="0 0 757.000000 757.000000"
 preserveAspectRatio="xMidYMid meet">
<metadata>
Created by potrace 1.14, written by Peter Selinger 2001-2017
</metadata>
<g transform="translate(0.000000,757.000000) scale(0.100000,-0.100000)"
fill="#000000" stroke="none">
<path d="M360 7489 c0 -5 -5 -7 -10 -4 -6 3 -13 -1 -16 -10 -4 -9 -13 -14 -21
-11 -8 4 -11 1 -8 -5 4 -6 -2 -13 -13 -15 -13 -4 -18 -13 -16 -29 1 -17 -2
-22 -12 -18 -8 3 -14 0 -14 -7 0 -6 -5 -8 -12 -4 -9 5 -9 2 1 -9 12 -15 9 -21
-11 -18 -5 0 -8 -6 -8 -15 0 -8 -4 -12 -10 -9 -5 3 -10 2 -10 -4 0 -5 6 -12
13 -14 8 -4 6 -6 -4 -6 -9 -1 -24 -10 -34 -21 -10 -11 -20 -18 -23 -15 -3 2 6
14 19 25 l24 21 -27 -17 c-16 -9 -28 -21 -28 -26 0 -5 -5 -6 -12 -2 -6 4 -8 3
-5 -3 9 -15 -19 -36 -35 -27 -8 5 -8 1 2 -11 8 -10 10 -16 4 -12 -6 4 -19 -2
-29 -13 -10 -11 -15 -20 -11 -20 4 0 -1 -15 -11 -32 -11 -18 -19 -43 -18 -56
2 -13 -2 -21 -9 -19 -6 3 -12 -7 -13 -21 -1 -18 1 -21 8 -11 6 9 9 10 9 2 0
-6 -4 -14 -9 -17 -13 -9 -11 -6386 3 -6386 6 0 5 -4 -2 -9 -15 -9 -15 -13 -1
-49 5 -13 5 -21 0 -18 -10 6 -7 -40 5 -68 6 -15 4 -18 -7 -12 -8 4 -6 1 4 -7
13 -11 15 -17 7 -22 -9 -6 -9 -10 1 -15 10 -7 10 -11 -1 -24 -11 -14 -10 -16
5 -10 13 5 16 4 11 -4 -4 -7 -2 -12 4 -12 6 0 8 -4 5 -10 -3 -5 1 -10 9 -10 9
0 22 -13 31 -30 10 -18 23 -30 36 -30 11 0 17 -4 14 -10 -6 -9 8 -15 29 -11 5
1 3 -6 -5 -15 -9 -12 -9 -15 -2 -10 8 4 13 2 13 -4 0 -6 4 -8 10 -5 5 3 10 -3
10 -14 0 -14 11 -26 33 -36 17 -8 23 -13 12 -10 -18 5 -18 3 3 -13 17 -13 21
-23 16 -37 -7 -17 -5 -18 8 -8 12 11 17 9 26 -12 6 -14 18 -25 26 -25 7 0 16
-7 20 -15 5 -13 404 -15 3506 -15 2332 0 3499 3 3495 10 -3 6 1 10 10 10 11 0
15 5 11 16 -3 8 -2 13 3 9 14 -8 41 5 41 20 0 7 7 16 16 19 10 4 14 14 11 25
-3 13 0 18 8 15 8 -4 16 6 20 25 4 17 11 31 17 31 6 0 8 3 5 6 -4 4 3 15 15
25 11 11 17 19 13 19 -5 0 0 6 10 14 11 8 23 12 28 9 4 -2 7 -1 6 4 -1 4 -1
17 0 28 1 17 3 18 11 5 6 -10 10 1199 10 3420 -1 3497 -1 3496 -33 3463 -4 -3
-7 1 -7 11 0 9 -4 15 -9 12 -13 -8 -51 29 -52 50 0 11 -3 13 -6 7 -8 -21 -22
-15 -18 7 2 12 -2 20 -10 20 -9 0 -12 6 -8 17 4 10 2 14 -5 9 -13 -8 -26 29
-16 45 4 7 3 9 -3 6 -5 -4 -20 5 -31 18 -12 14 -29 25 -38 25 -8 0 -12 4 -9
10 4 7 -1171 10 -3479 10 -2453 0 -3486 -3 -3486 -11z m7025 -59 c3 -5 1 -10
-4 -10 -6 0 -11 5 -11 10 0 6 2 10 4 10 3 0 8 -4 11 -10z m-7275 -7085 c0 -8
-2 -15 -4 -15 -2 0 -6 7 -10 15 -3 8 -1 15 4 15 6 0 10 -7 10 -15z"/>
</g>
</svg>
